<svg xmlns="http://www.w3.org/2000/svg" viewBox="0 0 1200 800">
  <defs>
    <linearGradient id="bg" x1="0" x2="1" y2="1">
      <stop offset="0%" stop-color="#eff7ff"/>
      <stop offset="100%" stop-color="#effaf1"/>
    </linearGradient>
    <radialGradient id="r1" cx="30%" cy="30%" r="60%">
      <stop offset="0%" stop-color="#2ea355" stop-opacity="0.18"/>
      <stop offset="100%" stop-color="#2ea355" stop-opacity="0"/>
    </radialGradient>
    <radialGradient id="r2" cx="80%" cy="70%" r="60%">
      <stop offset="0%" stop-color="#1a6de0" stop-opacity="0.20"/>
      <stop offset="100%" stop-color="#1a6de0" stop-opacity="0"/>
    </radialGradient>
  </defs>
  <rect width="1200" height="800" fill="url(#bg)"/>
  <rect width="1200" height="800" fill="url(#r1)"/>
  <rect width="1200" height="800" fill="url(#r2)"/>
  <g opacity="0.35" stroke="#1a6de0" fill="none" stroke-width="2">
    <circle cx="260" cy="220" r="110"/>
    <circle cx="960" cy="560" r="150"/>
    <circle cx="820" cy="180" r="60"/>
  </g>
  <g transform="translate(520,280)" opacity="0.9">
    <path d="M80 0h80v80h80v80h-80v80H80v-80H0V80h80z" fill="#2ea355"/>
    <path d="M170 30c40 20 60 70 40 120s-70 70-120 50c30 10 90-10 100-70s-30-90-20-100z" fill="#1a6de0"/>
  </g>
</svg>
